<?xml version="1.0" standalone="no"?>
<!DOCTYPE svg PUBLIC "-//W3C//DTD SVG 20010904//EN"
 "http://www.w3.org/TR/2001/REC-SVG-20010904/DTD/svg10.dtd">
<svg version="1.0" xmlns="http://www.w3.org/2000/svg"
 width="857.000000pt" height="1280.000000pt" viewBox="0 0 857.000000 1280.000000"
 preserveAspectRatio="xMidYMid meet">
<metadata>
Created by potrace 1.15, written by Peter Selinger 2001-2017
</metadata>
<g transform="translate(0.000000,1280.000000) scale(0.100000,-0.100000)"
fill="#000000" stroke="none">
<path d="M4175 12260 c-146 -53 -229 -86 -320 -131 -368 -179 -683 -412 -940
-696 -89 -98 -127 -145 -218 -268 -21 -27 -41 -54 -45 -60 -82 -106 -312 -526
-361 -660 -12 -33 -28 -73 -36 -90 -21 -46 -70 -187 -122 -355 -69 -219 -139
-578 -158 -812 -4 -49 -10 -88 -15 -88 -4 0 -17 24 -29 53 -94 231 -72 617 58
1062 26 87 109 330 127 370 7 17 24 57 37 90 14 33 32 78 41 100 16 37 11 34
-71 -50 -170 -173 -287 -321 -440 -555 -76 -115 -102 -161 -183 -325 -145
-293 -225 -527 -284 -830 -43 -222 -51 -322 -50 -610 1 -253 10 -376 40 -510
l7 -30 -37 35 c-172 162 -189 542 -47 1040 11 41 23 82 25 91 5 19 50 145 62
173 20 50 -112 -82 -243 -241 -214 -261 -419 -708 -529 -1153 -104 -422 -159
-884 -159 -1325 0 -212 1 -218 49 -430 4 -18 55 -267 121 -590 39 -189 74
-356 95 -460 12 -55 23 -109 25 -120 9 -51 55 -264 64 -302 11 -43 16 -79 56
-418 14 -115 29 -244 35 -285 11 -89 12 -194 4 -278 l-7 -61 -61 -15 c-119
-29 -170 -46 -185 -61 -12 -12 -17 -65 -24 -272 -10 -319 -7 -355 36 -385 18
-12 33 -26 35 -30 2 -4 10 -8 17 -8 21 0 103 -177 120 -259 8 -40 18 -77 21
-83 3 -5 10 -33 14 -61 5 -29 16 -86 24 -127 9 -41 19 -100 22 -130 4 -30 10
-60 15 -65 4 -6 12 -44 18 -85 16 -122 41 -274 47 -290 3 -8 9 -44 14 -80 6
-36 15 -90 21 -120 6 -30 14 -73 19 -95 17 -87 70 -274 99 -355 38 -103 109
-248 133 -274 10 -11 18 -24 18 -28 0 -17 155 -178 171 -178 5 0 19 -9 31 -19
46 -44 234 -117 371 -145 392 -81 959 -10 1286 160 103 54 109 58 140 88 15
14 32 26 38 26 6 0 18 11 27 25 9 14 22 25 29 25 7 0 21 13 30 30 10 16 22 30
28 30 5 0 9 4 9 8 0 5 17 27 38 50 34 37 183 253 222 322 43 76 109 213 130
270 13 36 26 67 29 70 9 8 121 347 121 366 0 9 6 28 14 42 12 23 45 146 76
282 5 19 15 60 23 91 9 30 19 79 23 107 3 29 10 52 14 52 5 0 11 19 15 42 17
98 67 175 144 220 39 24 57 28 124 28 59 0 87 -5 119 -21 41 -21 118 -94 118
-112 0 -6 9 -29 19 -51 24 -51 45 -115 62 -188 8 -32 17 -58 20 -58 4 0 10
-21 13 -48 4 -26 11 -58 15 -72 5 -14 23 -79 41 -145 18 -66 36 -129 40 -140
26 -67 40 -107 59 -165 23 -71 84 -238 105 -285 8 -16 18 -41 23 -55 6 -14 28
-63 50 -110 22 -47 44 -95 47 -107 4 -13 11 -23 14 -23 4 0 16 -20 27 -45 11
-25 23 -45 28 -45 4 0 7 -4 7 -10 0 -12 57 -94 89 -129 13 -14 31 -37 40 -51
24 -38 198 -200 215 -200 3 0 19 -12 36 -26 28 -26 57 -43 115 -71 17 -8 39
-19 50 -26 120 -67 332 -125 555 -152 151 -19 465 -19 603 0 291 39 502 141
629 305 40 51 90 131 112 176 10 21 24 50 31 64 7 14 20 50 29 80 10 30 21 64
26 75 17 41 38 112 54 180 10 39 23 93 31 120 24 86 33 127 51 215 36 184 51
269 66 378 6 45 15 82 20 82 4 0 8 13 8 29 0 16 6 62 14 102 8 41 20 108 27
149 6 41 18 89 24 106 7 17 16 55 20 85 8 61 24 117 40 139 7 8 21 33 31 56
20 40 73 95 105 106 33 12 42 103 35 360 -3 134 -9 257 -12 275 -5 28 -13 35
-60 52 -29 11 -82 26 -117 32 l-63 12 7 51 c4 28 10 60 13 71 2 11 11 52 20
90 52 244 147 485 191 485 9 0 15 9 15 23 -1 235 -32 1853 -36 1882 -4 22 -38
118 -76 214 -54 134 -84 194 -133 265 -178 255 -418 621 -449 683 -6 13 -14
23 -18 23 -5 0 -8 4 -8 10 0 5 -27 54 -59 108 -154 256 -305 552 -420 822 -18
41 -36 84 -41 95 -100 223 -223 635 -265 885 -9 52 -18 106 -21 120 -34 186
-29 493 11 680 15 69 30 130 34 135 11 14 31 75 25 75 -3 0 -23 -14 -45 -32
-100 -80 -238 -290 -355 -538 -24 -52 -48 -102 -54 -112 -5 -9 -30 -69 -56
-135 -25 -65 -49 -121 -53 -125 -13 -15 -217 277 -308 442 -150 270 -226 479
-303 830 -32 145 -43 526 -20 705 30 243 109 524 197 704 12 25 20 47 18 49
-11 12 -212 -155 -330 -273 -127 -127 -222 -241 -302 -360 -278 -417 -458
-894 -573 -1520 -34 -189 -68 -496 -70 -635 l-1 -75 -89 92 c-72 75 -245 273
-278 318 -237 326 -357 573 -426 880 -36 159 -47 394 -26 562 34 267 149 564
317 817 78 116 236 309 311 379 28 26 48 47 44 47 -4 -1 -43 -14 -87 -30z
m1115 -6454 c214 -22 455 -63 515 -87 28 -11 75 -24 105 -29 65 -12 308 -52
510 -85 147 -24 396 -65 416 -69 6 -1 27 -15 47 -31 44 -37 176 -290 200 -385
45 -181 51 -336 27 -754 l-10 -190 37 -30 c21 -17 49 -42 64 -56 14 -14 91
-83 171 -155 l145 -129 7 -94 c4 -52 5 -96 3 -98 -2 -2 -48 2 -103 10 -54 8
-169 19 -254 25 -85 6 -238 16 -340 23 -442 30 -1042 3 -1275 -57 -31 -8 -68
-15 -83 -15 -15 0 -61 -9 -102 -21 -41 -12 -103 -27 -136 -34 -34 -8 -81 -23
-105 -34 -23 -12 -51 -21 -62 -21 -10 0 -41 -11 -69 -25 -27 -14 -55 -25 -61
-25 -7 0 -39 -13 -72 -29 -33 -17 -87 -42 -120 -57 -33 -14 -78 -34 -100 -44
-22 -10 -58 -23 -80 -30 -22 -7 -49 -16 -60 -21 -94 -36 -262 -48 -374 -25
-75 15 -116 28 -310 97 -30 11 -65 26 -78 34 -12 8 -29 15 -36 15 -8 0 -41 13
-73 30 -32 16 -67 30 -76 30 -10 0 -41 11 -70 24 -104 47 -433 136 -502 136
-15 0 -54 6 -85 14 -338 87 -1364 86 -1708 -1 -21 -5 -23 -1 -23 28 0 28 8 39
42 64 36 27 131 101 337 266 l63 51 -6 122 c-4 66 -12 164 -18 216 -6 52 -11
244 -12 425 -1 295 1 335 17 382 29 83 18 78 472 198 50 13 135 36 190 50 55
15 141 38 190 50 50 13 176 47 280 75 105 29 223 60 263 71 39 10 105 28 145
38 178 48 269 72 357 95 52 13 100 26 106 28 6 1 51 -40 100 -93 204 -218 293
-316 314 -341 12 -16 25 -28 30 -28 5 0 181 110 391 245 209 135 385 245 389
245 4 0 14 7 21 16 11 14 33 15 154 11 77 -3 210 -12 295 -21z m1195 -2417
c416 -28 807 -140 912 -263 27 -30 88 -176 113 -266 20 -71 26 -134 40 -406 8
-151 6 -222 -11 -435 -22 -285 -39 -426 -62 -514 -9 -33 -25 -104 -36 -157
-11 -53 -24 -105 -30 -115 -5 -10 -17 -45 -26 -78 -18 -61 -92 -226 -106 -235
-5 -3 -23 -27 -41 -52 -41 -57 -153 -149 -204 -168 -16 -6 -47 -19 -69 -29
-22 -11 -60 -24 -85 -30 -25 -7 -72 -19 -105 -29 -87 -24 -526 -24 -635 1 -41
10 -104 22 -140 28 -36 6 -99 22 -140 35 -42 13 -83 24 -91 24 -21 0 -148 66
-175 91 -11 10 -24 19 -30 19 -13 0 -123 106 -176 170 -41 50 -93 125 -140
205 -40 66 -120 242 -165 360 -9 22 -19 49 -24 60 -8 18 -20 62 -36 135 -3 14
-10 30 -14 36 -5 6 -13 33 -19 60 -5 27 -17 81 -25 119 -57 260 -70 367 -70
595 0 302 28 411 136 525 54 57 121 97 244 145 98 38 310 99 385 111 30 4 89
16 130 25 65 15 332 38 485 43 28 0 122 -4 210 -10z m-3710 -35 c222 -35 439
-95 560 -155 103 -51 227 -169 263 -252 6 -15 22 -64 34 -110 19 -72 22 -108
22 -287 1 -156 -3 -231 -18 -315 -34 -201 -56 -316 -64 -333 -5 -9 -17 -53
-26 -97 -10 -44 -28 -107 -41 -140 -13 -33 -31 -87 -41 -120 -9 -33 -21 -64
-25 -70 -4 -5 -21 -44 -37 -85 -148 -370 -322 -585 -571 -705 -41 -19 -79 -35
-86 -35 -6 0 -39 -11 -72 -25 -33 -13 -87 -29 -119 -34 -33 -6 -90 -18 -129
-28 -56 -13 -118 -17 -305 -17 -212 -1 -245 1 -335 22 -159 37 -274 78 -308
110 -13 12 -27 22 -31 22 -27 0 -169 197 -181 250 -3 16 -13 34 -21 41 -8 6
-14 19 -14 29 0 9 -3 20 -7 24 -9 9 -43 117 -43 139 0 9 -4 17 -8 17 -9 0 -26
72 -66 280 -23 115 -32 186 -56 450 -5 52 -13 133 -19 180 -23 179 -9 451 36
709 15 87 73 231 100 250 5 3 19 20 31 37 32 46 119 108 192 136 85 34 250 78
325 89 33 4 105 16 160 25 243 39 641 39 900 -2z m-1881 -144 c71 -27 -2 -70
-118 -70 -70 0 -156 21 -156 39 0 10 42 34 75 42 37 10 163 3 199 -11z m7033
-5 c32 -21 29 -34 -12 -51 -79 -32 -261 -9 -253 33 8 41 209 54 265 18z"/>
</g>
</svg>
